<svg xmlns="http://www.w3.org/2000/svg" xmlns:xlink="http://www.w3.org/1999/xlink" aria-hidden="true" role="img" style="vertical-align: -0.125em; width: 1.2em; height: 1em;" preserveAspectRatio="xMidYMid meet" viewBox="0 0 256 221"><path fill="#646CFF" d="M204.3 0H256V128L128 0h23.8c24.3 0 44.4 20.1 52.5 48.3Z"></path><path fill="#646CFF" d="M0 128v85.8c0 4 3.3 7.3 7.3 7.3h194.4c4 0 7.3-3.3 7.3-7.3V128H0Z"></path><path fill="#646CFF" d="M0 0v48.3C0 52.3 3.3 55.6 7.3 55.6h194.4c4 0 7.3-3.3 7.3-7.3V0H0Z"></path><path fill="#FDB740" d="M0 48.3v79.4c0 4 3.3 7.3 7.3 7.3h194.4c4 0 7.3-3.3 7.3-7.3V48.3H0Zm48.3 32.6c0-4 3.3-7.3 7.3-7.3h139.7c4 0 7.3 3.3 7.3 7.3s-3.3 7.3-7.3 7.3H55.6c-4 0-7.3-3.3-7.3-7.3Z"></path></svg>
